<svg data-v-09ae25cd="" xmlns="http://www.w3.org/2000/svg" width="24" height="24" viewBox="0 0 24 24" class="ds-icon ds-button__icon"><path fill="#2b2f33" fill-rule="evenodd" clip-rule="evenodd" d="M5.105 16.095a8 8 0 1 1 13.856-8c1.136 1.968 1.178 3.795.966 5.047-.11.648-.294 1.17-.54 1.509-.215.293-.464.444-.854.444-.267 0-.425-.044-.532-.105-.1-.056-.239-.172-.386-.467-.324-.647-.58-1.934-.582-4.397v-.03h-2v.032c0 1.47-.034 2.186-.064 2.522-.005.058-.01.101-.014.131l-.024.09a3 3 0 1 1-2.122-3.673l.518-1.932a5 5 0 1 0 2.48 8.112l.019.04c.29.58.682 1.026 1.192 1.314.502.283 1.032.363 1.515.363 1.11 0 1.929-.525 2.47-1.266.507-.697.763-1.568.896-2.353.273-1.616.207-3.933-1.206-6.38-2.761-4.784-8.877-6.422-13.66-3.66-4.783 2.76-6.422 8.877-3.66 13.66 2.761 4.782 8.877 6.421 13.66 3.66l-1-1.732a8 8 0 0 1-10.928-2.929Z"></path></svg>
