<svg data-v-09ae25cd="" xmlns="http://www.w3.org/2000/svg" width="24" height="24" viewBox="0 0 24 24" class="ds-icon ds-button__icon"><path fill="#2b2f33" fill-rule="evenodd" clip-rule="evenodd" d="M20 12a8 8 0 1 1-16 0 8 8 0 0 1 16 0Zm2 0c0 5.523-4.477 10-10 10S2 17.523 2 12 6.477 2 12 2s10 4.477 10 10Zm-9.462-3.862h.77v8.552h1.723V6.8H12.53c-2.521 0-3.85 1.301-3.85 3.208 0 1.521.725 2.42 2.016 3.346L8.45 16.699h1.87l2.502-3.74-.87-.586c-1.055-.716-1.568-1.274-1.568-2.466 0-1.054.742-1.769 2.154-1.769Z"></path></svg>
